<svg width="141" height="87" viewBox="0 0 141 87" fill="none" xmlns="http://www.w3.org/2000/svg">
<path d="M25.6911 17.8408C25.7819 18.2724 25.7819 18.7267 25.6911 19.2038C25.6456 19.4309 25.6002 19.6581 25.5548 19.8852C25.5321 20.0897 25.498 20.3055 25.4526 20.5326L25.4185 20.6689C25.1005 22.0773 24.737 23.5651 24.3281 25.1325C23.942 26.6771 23.5899 28.1423 23.2719 29.5279C22.9993 30.6637 22.7154 31.913 22.4201 33.2759C22.1248 34.6388 21.8181 35.8882 21.5001 37.024C21.3865 37.4101 21.2616 37.7963 21.1253 38.1824C21.0117 38.5686 20.864 38.9548 20.6823 39.3409C20.5233 39.6817 20.3302 39.9883 20.1031 40.2609C19.8986 40.5108 19.6601 40.6925 19.3876 40.8061C19.115 40.9424 18.8197 40.9878 18.5017 40.9424C18.2064 40.9196 17.877 40.7833 17.5135 40.5335C16.9684 40.1473 16.5595 39.6135 16.2869 38.932C16.037 38.2506 15.7758 37.6259 15.5032 37.058C15.4124 36.899 15.2761 36.5469 15.0944 36.0018C14.9126 35.4566 14.7195 34.866 14.5151 34.23C14.3107 33.5712 14.1062 32.9466 13.9018 32.356C13.7201 31.7426 13.5611 31.2883 13.4248 30.993C13.2203 31.4928 13.0159 32.0607 12.8115 32.6967C12.607 33.3327 12.4139 33.9574 12.2322 34.5707C12.0505 35.184 11.8801 35.7405 11.7211 36.2403C11.5848 36.7173 11.4826 37.0694 11.4145 37.2965C11.2327 37.7508 11.0283 38.2506 10.8011 38.7958C10.5967 39.3409 10.3355 39.8066 10.0175 40.1927C9.72217 40.5789 9.35872 40.8288 8.92713 40.9424C8.49554 41.0786 7.98445 40.9537 7.39385 40.5676C6.93954 40.295 6.62152 39.9088 6.4398 39.4091C6.32623 39.0911 6.21265 38.7844 6.09907 38.4891C5.98549 38.1938 5.89463 37.8871 5.82649 37.5691L5.14503 35.0136L3.74803 29.5279C3.56631 28.8237 3.38459 28.1082 3.20286 27.3813C3.04386 26.6317 2.85078 25.8594 2.62362 25.0643C2.51005 24.6782 2.40783 24.3034 2.31697 23.9399C2.24882 23.5538 2.16932 23.1449 2.07845 22.7133C2.01031 22.259 1.91945 21.7479 1.80587 21.18C1.71501 20.6121 1.60143 19.9534 1.46514 19.2038C1.41971 18.9539 1.38564 18.7267 1.36292 18.5223C1.36292 18.2951 1.38564 18.068 1.43107 17.8408C1.4765 17.5001 1.63551 17.2048 1.90809 16.9549C2.02167 16.8414 2.15796 16.7505 2.31697 16.6824C2.47597 16.6142 2.64634 16.5574 2.82806 16.512C3.10065 16.4211 3.38459 16.3757 3.67989 16.3757C3.95247 16.3757 4.23641 16.4666 4.53171 16.6483C4.73615 16.7619 4.89516 16.9095 5.00873 17.0912L5.41761 17.8068C5.46304 17.9658 5.50847 18.1134 5.5539 18.2497C5.59933 18.3633 5.64476 18.4882 5.6902 18.6245C5.73563 18.7835 5.7697 18.9312 5.79241 19.0675C5.81513 19.181 5.83785 19.2946 5.86056 19.4082C6.065 20.5894 6.31487 21.7365 6.61017 22.8496C6.90547 23.9626 7.17805 25.0303 7.42792 26.0524C7.51878 26.4613 7.63236 26.9724 7.76865 27.5857C7.90494 28.1763 8.04123 28.801 8.17753 29.4597C8.31382 30.0958 8.45011 30.7091 8.5864 31.2997C8.72269 31.8903 8.85899 32.356 8.99528 32.6967C9.29058 31.6745 9.58588 30.6523 9.88118 29.6301C10.1992 28.6079 10.5399 27.5744 10.9034 26.5295C11.0851 25.9843 11.2668 25.4959 11.4485 25.0643C11.653 24.61 11.8801 24.2352 12.13 23.9399C12.3799 23.6446 12.6638 23.4515 12.9818 23.3607C13.2998 23.2698 13.6746 23.3039 14.1062 23.4629C14.4924 23.6219 14.8331 23.9626 15.1284 24.4851C15.4237 25.0075 15.6849 25.5413 15.9121 26.0865C16.1165 26.5863 16.3096 27.1201 16.4913 27.6879C16.6958 28.2331 16.8889 28.7783 17.0706 29.3235C17.275 29.8459 17.4681 30.3456 17.6498 30.8227C17.8316 31.2997 18.0133 31.7086 18.195 32.0493C18.2631 31.7994 18.3426 31.4814 18.4335 31.0952C18.5244 30.7091 18.6152 30.3002 18.7061 29.8686C18.8197 29.4143 18.9219 28.9714 19.0127 28.5398C19.1036 28.1082 19.1945 27.7107 19.2853 27.3472C19.5806 26.1206 19.8873 24.894 20.2053 23.6673C20.5233 22.418 20.83 21.1914 21.1253 19.9874L21.2956 19.4082C21.3411 19.2946 21.3638 19.181 21.3638 19.0675C21.3865 18.9312 21.4206 18.7835 21.466 18.6245C21.5114 18.4882 21.5569 18.3633 21.6023 18.2497C21.6477 18.1134 21.6932 17.9658 21.7386 17.8068C21.784 17.6932 21.8295 17.5796 21.8749 17.466C21.943 17.3297 22.0225 17.2048 22.1134 17.0912C22.1815 16.9777 22.261 16.8868 22.3519 16.8187C22.4428 16.7505 22.5336 16.6937 22.6245 16.6483C22.9425 16.4666 23.2151 16.3757 23.4422 16.3757C23.7375 16.3757 24.0215 16.4211 24.2941 16.512C24.6575 16.5801 24.9869 16.7278 25.2822 16.9549C25.5093 17.1821 25.6456 17.4774 25.6911 17.8408ZM39.4182 33.8892C39.4409 34.3435 39.4523 34.8206 39.4523 35.3203C39.4523 35.7973 39.4409 36.2403 39.4182 36.6492C39.3955 37.2625 39.3614 37.8304 39.316 38.3528C39.2706 38.8525 39.1797 39.2841 39.0434 39.6476C38.9071 39.9883 38.6913 40.2495 38.396 40.4313C38.1235 40.5903 37.7373 40.6357 37.2376 40.5676C36.7151 40.4994 36.3403 40.2495 36.1131 39.8179C35.886 39.3864 35.727 38.898 35.6361 38.3528C35.568 37.7849 35.5453 37.217 35.568 36.6492C35.5907 36.0813 35.5907 35.6383 35.568 35.3203C35.5453 34.8206 35.5225 34.2527 35.4998 33.6167C35.4998 32.9579 35.4317 32.3446 35.2954 31.7767C35.1818 31.1861 34.9774 30.6864 34.6821 30.2775C34.3868 29.8686 33.9438 29.6528 33.3532 29.6301C32.6036 29.5847 32.0244 29.6415 31.6155 29.8005C31.2293 29.9595 30.9454 30.198 30.7637 30.516C30.582 30.8113 30.4684 31.1748 30.423 31.6063C30.4002 32.0379 30.3548 32.5036 30.2867 33.0033L30.2526 34.3322V36.8195C30.2526 37.2284 30.2412 37.66 30.2185 38.1143C30.2185 38.5459 30.1504 38.9434 30.0141 39.3068C29.8778 39.6703 29.662 39.977 29.3667 40.2268C29.0941 40.4767 28.6852 40.6016 28.1401 40.6016C27.4586 40.6016 26.9475 40.3858 26.6068 39.9542C26.2888 39.4999 26.1298 38.9434 26.1298 38.2847V18.6927C26.1298 18.5564 26.1298 18.4314 26.1298 18.3179C26.1525 18.1816 26.1752 18.0453 26.1979 17.909C26.2433 17.7727 26.2774 17.6478 26.3001 17.5342C26.3228 17.3979 26.3569 17.273 26.4023 17.1594C26.4705 16.9322 26.5841 16.7619 26.7431 16.6483C26.8566 16.5347 26.9702 16.4438 27.0838 16.3757C27.1974 16.3076 27.3223 16.2621 27.4586 16.2394C27.5722 16.2167 27.6971 16.2053 27.8334 16.2053C27.9697 16.1826 28.106 16.1713 28.2423 16.1713C28.583 16.1713 28.9124 16.2735 29.2304 16.4779C29.3667 16.5688 29.4916 16.671 29.6052 16.7846C29.7188 16.8754 29.8096 17.0117 29.8778 17.1935C30.0595 17.625 30.1504 18.0339 30.1504 18.4201C30.1731 18.5337 30.1844 18.704 30.1844 18.9312C30.2072 19.1356 30.2185 19.3514 30.2185 19.5786C30.2185 19.8057 30.2185 20.0329 30.2185 20.26C30.2412 20.4645 30.2526 20.6235 30.2526 20.737V20.9074C30.2753 21.6343 30.2867 22.3726 30.2867 23.1222C30.2867 23.8718 30.2867 24.6327 30.2867 25.4051V25.9843C31.2407 25.6663 32.2402 25.5186 33.2851 25.5413C34.33 25.5413 35.2613 25.7458 36.0791 26.1547C36.9195 26.5863 37.5556 27.0746 37.9872 27.6198C38.4415 28.165 38.7708 28.7669 38.9753 29.4257C39.1797 30.0844 39.2933 30.7886 39.316 31.5382C39.3614 32.2878 39.3955 33.0715 39.4182 33.8892ZM51.5722 35.9336C51.8448 35.8655 52.1174 35.82 52.3899 35.7973C52.6852 35.7746 52.9465 35.8087 53.1736 35.8995C53.4235 35.9904 53.6279 36.1494 53.7869 36.3766C53.9459 36.581 54.0254 36.8763 54.0254 37.2625C54.0254 37.5351 53.9573 37.7963 53.821 38.0461C53.6847 38.296 53.5143 38.5232 53.3099 38.7276C53.1055 38.932 52.8783 39.1138 52.6285 39.2728C52.3786 39.4091 52.1401 39.5226 51.9129 39.6135C51.2542 39.9088 50.4932 40.136 49.63 40.295C48.7896 40.454 47.915 40.5108 47.0064 40.4653C45.7798 40.4199 44.5986 40.1814 43.4628 39.7498C42.3498 39.2955 41.4752 38.5572 40.8392 37.5351C40.2486 36.5356 39.8965 35.4225 39.7829 34.1959C39.6693 32.9693 39.7261 31.8108 39.9533 30.7204C40.2032 29.403 40.6234 28.3353 41.214 27.5176C41.8273 26.6771 42.5542 26.007 43.3947 25.5073C44.4169 24.9167 45.564 24.61 46.836 24.5873C48.1081 24.5646 49.3234 24.8145 50.4818 25.3369C51.2542 25.6776 51.947 26.1433 52.5603 26.7339C53.1736 27.3018 53.6393 27.9946 53.9573 28.8124C54.0482 29.0168 54.1163 29.2667 54.1617 29.562C54.2299 29.8573 54.2753 30.1753 54.298 30.516C54.3207 30.834 54.3207 31.152 54.298 31.4701C54.2753 31.7881 54.2185 32.072 54.1277 32.3219C53.9914 32.7308 53.821 33.0488 53.6166 33.2759C53.4121 33.5031 53.1509 33.6734 52.8329 33.787C52.5149 33.9006 52.1287 33.9801 51.6744 34.0255C51.2428 34.0482 50.7204 34.071 50.107 34.0937C49.5619 34.1164 49.0508 34.1277 48.5738 34.1277C48.0967 34.1277 47.6084 34.1277 47.1086 34.1277C46.6089 34.105 46.0864 34.0937 45.5413 34.0937C45.0188 34.071 44.4282 34.0482 43.7695 34.0255C43.7013 34.4798 43.7581 34.8774 43.9398 35.2181C44.1443 35.5361 44.4169 35.8087 44.7576 36.0358C45.0983 36.2403 45.4845 36.3993 45.9161 36.5129C46.3477 36.6264 46.7679 36.6946 47.1768 36.7173C47.9491 36.7627 48.6873 36.7059 49.3915 36.5469C50.0957 36.3652 50.8226 36.1608 51.5722 35.9336ZM50.107 29.3235C49.6755 28.8237 49.2211 28.4603 48.7441 28.2331C48.3807 28.0741 47.9945 28.006 47.5856 28.0287C47.1995 28.0287 46.8247 28.0855 46.4612 28.199C45.8025 28.358 45.246 28.6988 44.7917 29.2212C44.7462 29.2667 44.6667 29.3802 44.5531 29.562C44.4396 29.721 44.326 29.8913 44.2124 30.0731C44.1216 30.2548 44.0534 30.4251 44.008 30.5842C43.9625 30.7432 43.9853 30.8227 44.0761 30.8227H50.7544C50.7317 30.5046 50.6749 30.2434 50.5841 30.039C50.4932 29.8118 50.3342 29.5733 50.107 29.3235ZM54.7013 28.5398C54.7013 28.2672 54.7013 27.9605 54.7013 27.6198C54.7013 27.2564 54.7127 26.8929 54.7354 26.5295C54.7581 26.1433 54.7922 25.7799 54.8376 25.4391C54.9057 25.0757 54.9966 24.7577 55.1102 24.4851C55.2919 24.0762 55.5759 23.8036 55.962 23.6673C56.3482 23.5083 56.7684 23.4402 57.2227 23.4629C57.6997 23.4629 58.0745 23.5424 58.3471 23.7014C58.6197 23.8604 58.8241 24.0762 58.9604 24.3488C59.0967 24.5987 59.1762 24.894 59.199 25.2347C59.2444 25.5527 59.2671 25.8934 59.2671 26.2569C59.4715 25.8934 59.7441 25.5981 60.0848 25.371C60.4483 25.1438 60.8117 24.9621 61.1752 24.8258C61.5386 24.6895 61.868 24.5987 62.1633 24.5532C62.4586 24.4851 62.629 24.451 62.6744 24.451C63.2423 24.4056 63.7534 24.3942 64.2077 24.4169C64.6847 24.4397 65.2072 24.5419 65.775 24.7236C66.1385 24.8599 66.5133 25.053 66.8995 25.3028C67.2856 25.53 67.6263 25.8026 67.9216 26.1206C68.2169 26.4386 68.41 26.7907 68.5009 27.1769C68.6145 27.5403 68.569 27.9265 68.3646 28.3353C68.0466 28.9032 67.6945 29.1872 67.3083 29.1872C66.9222 29.1644 66.5019 29.0963 66.0476 28.9827C65.7978 28.9373 65.5025 28.8351 65.1617 28.6761C64.821 28.5171 64.5257 28.4148 64.2758 28.3694C63.5035 28.2558 62.822 28.3126 62.2315 28.5398C61.6409 28.7669 61.1298 29.0395 60.6982 29.3575C60.1984 29.7437 59.7668 30.1866 59.4034 30.6864V35.5929C59.4034 36.2062 59.392 36.8422 59.3693 37.501C59.3693 38.1597 59.2785 38.7617 59.0967 39.3068C58.9377 39.8293 58.6538 40.2609 58.2449 40.6016C57.8587 40.9196 57.2909 41.0559 56.5413 41.0105C56.1324 40.9878 55.7689 40.7947 55.4509 40.4313C55.1329 40.0451 54.9398 39.6703 54.8717 39.3068C54.8262 38.9661 54.7922 38.5572 54.7695 38.0802C54.7467 37.6032 54.724 37.1035 54.7013 36.581C54.7013 36.0586 54.7013 35.5361 54.7013 35.0136C54.7013 34.4685 54.7013 33.9687 54.7013 33.5144V28.5398ZM78.6789 35.9336C78.9515 35.8655 79.224 35.82 79.4966 35.7973C79.7919 35.7746 80.0532 35.8087 80.2803 35.8995C80.5302 35.9904 80.7346 36.1494 80.8936 36.3766C81.0526 36.581 81.1321 36.8763 81.1321 37.2625C81.1321 37.5351 81.064 37.7963 80.9277 38.0461C80.7914 38.296 80.621 38.5232 80.4166 38.7276C80.2122 38.932 79.985 39.1138 79.7351 39.2728C79.4853 39.4091 79.2468 39.5226 79.0196 39.6135C78.3609 39.9088 77.5999 40.136 76.7367 40.295C75.8962 40.454 75.0217 40.5108 74.1131 40.4653C72.8865 40.4199 71.7053 40.1814 70.5695 39.7498C69.4564 39.2955 68.5819 38.5572 67.9459 37.5351C67.3553 36.5356 67.0032 35.4225 66.8896 34.1959C66.776 32.9693 66.8328 31.8108 67.06 30.7204C67.3098 29.403 67.7301 28.3353 68.3207 27.5176C68.934 26.6771 69.6609 26.007 70.5013 25.5073C71.5235 24.9167 72.6707 24.61 73.9427 24.5873C75.2148 24.5646 76.4301 24.8145 77.5885 25.3369C78.3609 25.6776 79.0537 26.1433 79.667 26.7339C80.2803 27.3018 80.746 27.9946 81.064 28.8124C81.1548 29.0168 81.223 29.2667 81.2684 29.562C81.3366 29.8573 81.382 30.1753 81.4047 30.516C81.4274 30.834 81.4274 31.152 81.4047 31.4701C81.382 31.7881 81.3252 32.072 81.2344 32.3219C81.0981 32.7308 80.9277 33.0488 80.7233 33.2759C80.5188 33.5031 80.2576 33.6734 79.9396 33.787C79.6216 33.9006 79.2354 33.9801 78.7811 34.0255C78.3495 34.0482 77.827 34.071 77.2137 34.0937C76.6686 34.1164 76.1575 34.1277 75.6804 34.1277C75.2034 34.1277 74.715 34.1277 74.2153 34.1277C73.7156 34.105 73.1931 34.0937 72.648 34.0937C72.1255 34.071 71.5349 34.0482 70.8762 34.0255C70.808 34.4798 70.8648 34.8774 71.0465 35.2181C71.251 35.5361 71.5235 35.8087 71.8643 36.0358C72.205 36.2403 72.5912 36.3993 73.0228 36.5129C73.4543 36.6264 73.8746 36.6946 74.2835 36.7173C75.0558 36.7627 75.794 36.7059 76.4982 36.5469C77.2024 36.3652 77.9293 36.1608 78.6789 35.9336ZM77.2137 29.3235C76.7821 28.8237 76.3278 28.4603 75.8508 28.2331C75.4874 28.0741 75.1012 28.006 74.6923 28.0287C74.3062 28.0287 73.9314 28.0855 73.5679 28.199C72.9092 28.358 72.3527 28.6988 71.8983 29.2212C71.8529 29.2667 71.7734 29.3802 71.6598 29.562C71.5463 29.721 71.4327 29.8913 71.3191 30.0731C71.2282 30.2548 71.1601 30.4251 71.1147 30.5842C71.0692 30.7432 71.0919 30.8227 71.1828 30.8227H77.8611C77.8384 30.5046 77.7816 30.2434 77.6908 30.039C77.5999 29.8118 77.4409 29.5733 77.2137 29.3235ZM93.8973 27.6879C93.8973 28.324 93.8973 29.0395 93.8973 29.8345C93.92 30.6296 93.9313 31.4587 93.9313 32.3219C93.9313 33.1623 93.9313 34.0028 93.9313 34.8433C93.9313 35.661 93.92 36.422 93.8973 37.1262C93.8746 37.4669 93.8405 37.8417 93.7951 38.2506C93.7496 38.6367 93.6588 39.0002 93.5225 39.3409C93.3862 39.6817 93.1704 39.9656 92.8751 40.1927C92.6025 40.3972 92.2277 40.488 91.7507 40.4653C91.0465 40.4199 90.5354 40.1132 90.2174 39.5454C89.9221 38.9775 89.7517 38.1824 89.7063 37.1602C89.7063 36.6378 89.6949 36.0358 89.6722 35.3544C89.6722 34.6729 89.6609 33.9801 89.6381 33.2759C89.6381 32.5717 89.6381 31.8903 89.6381 31.2315C89.6381 30.5501 89.6381 29.9368 89.6381 29.3916C89.6381 29.0736 89.6268 28.6874 89.6041 28.2331C89.6041 27.7788 89.6154 27.3131 89.6381 26.8361C89.6609 26.3591 89.7176 25.9048 89.8085 25.4732C89.8994 25.0189 90.047 24.6441 90.2515 24.3488C90.4105 24.1671 90.6376 24.0308 90.9329 23.9399C91.2282 23.8263 91.5349 23.7695 91.8529 23.7695C92.1936 23.7695 92.5116 23.8263 92.8069 23.9399C93.125 24.0535 93.3521 24.2125 93.4884 24.4169C93.5793 24.5532 93.6474 24.7463 93.6928 24.9962C93.7383 25.246 93.7723 25.53 93.7951 25.848C93.8405 26.1433 93.8632 26.4613 93.8632 26.802C93.8859 27.1201 93.8973 27.4154 93.8973 27.6879ZM92.6025 20.8052C91.8983 20.9869 91.3077 20.9188 90.8307 20.6008C90.3764 20.26 90.0925 19.7603 89.9789 19.1015C89.888 18.6245 89.9221 18.2043 90.0811 17.8408C90.2401 17.4774 90.4786 17.2048 90.7966 17.0231C91.1146 16.8187 91.4781 16.7278 91.887 16.7505C92.2958 16.7732 92.7047 16.9322 93.1136 17.2275C93.4998 17.5001 93.7723 17.8181 93.9313 18.1816C94.1131 18.545 94.1699 18.8971 94.1017 19.2378C94.0563 19.5786 93.9086 19.8966 93.6588 20.1919C93.4089 20.4645 93.0568 20.6689 92.6025 20.8052ZM102.65 34.6048C102.218 34.3322 101.73 34.1164 101.184 33.9574C100.662 33.7984 100.117 33.6507 99.5489 33.5144C99.0037 33.3781 98.4699 33.2305 97.9474 33.0715C97.425 32.8898 96.948 32.6399 96.5164 32.3219C95.585 31.6177 95.0399 30.7545 94.8809 29.7323C94.7446 28.6874 94.9717 27.6425 95.5623 26.5976C95.8803 26.0524 96.3006 25.6095 96.823 25.2688C97.3455 24.9053 97.9134 24.6327 98.5267 24.451C99.1627 24.2466 99.8101 24.133 100.469 24.1103C101.128 24.0876 101.752 24.1216 102.343 24.2125C102.729 24.2806 103.138 24.3829 103.569 24.5192C104.001 24.6327 104.399 24.7917 104.762 24.9962C105.148 25.2006 105.489 25.4618 105.784 25.7799C106.102 26.0752 106.329 26.45 106.466 26.9043C106.557 27.1996 106.568 27.4835 106.5 27.7561C106.454 28.0287 106.341 28.2558 106.159 28.4376C106 28.6193 105.784 28.7556 105.512 28.8464C105.262 28.9373 104.989 28.96 104.694 28.9146C104.353 28.8464 104.035 28.7442 103.74 28.6079C103.445 28.4716 103.149 28.324 102.854 28.165C102.559 28.006 102.252 27.8697 101.934 27.7561C101.639 27.6425 101.321 27.5857 100.98 27.5857C100.457 27.563 100.026 27.6539 99.6852 27.8583C99.3444 28.0628 99.1059 28.3126 98.9696 28.6079C98.856 28.9032 98.8674 29.2212 99.0037 29.562C99.1627 29.9027 99.4807 30.198 99.9577 30.4479C100.389 30.675 100.866 30.8567 101.389 30.993C101.911 31.1293 102.422 31.2656 102.922 31.4019C103.445 31.5382 103.944 31.6972 104.421 31.8789C104.921 32.0607 105.364 32.3105 105.75 32.6285C106.5 33.2418 106.954 33.9574 107.113 34.7751C107.295 35.5929 107.249 36.3993 106.977 37.1943C106.704 37.9894 106.227 38.6935 105.546 39.3068C104.887 39.9202 104.103 40.329 103.195 40.5335C102.536 40.6698 101.82 40.7379 101.048 40.7379C100.298 40.7379 99.5489 40.6584 98.7993 40.4994C98.0724 40.3404 97.3682 40.0905 96.6867 39.7498C96.028 39.4091 95.4715 38.9775 95.0172 38.455C94.6991 38.0916 94.5288 37.6827 94.5061 37.2284C94.5061 36.7514 94.5969 36.3425 94.7786 36.0018C94.9831 35.6383 95.267 35.3885 95.6305 35.2522C95.9939 35.1159 96.4028 35.1954 96.8571 35.4907C97.2205 35.7405 97.6521 35.9904 98.1519 36.2403C98.6516 36.4674 99.1513 36.6492 99.6511 36.7854C100.151 36.9217 100.628 36.9899 101.082 36.9899C101.559 36.9899 101.968 36.8877 102.309 36.6832C102.809 36.3652 103.07 36.0018 103.092 35.5929C103.115 35.1613 102.968 34.8319 102.65 34.6048ZM19.8305 57.6626C19.8759 58.3895 19.8986 59.0823 19.8986 59.7411C19.8986 60.3771 19.8759 61.0586 19.8305 61.7854C19.8305 62.058 19.8305 62.3647 19.8305 62.7054C19.8305 63.0461 19.8078 63.3755 19.7624 63.6935C19.7169 64.0115 19.6374 64.3068 19.5238 64.5794C19.4103 64.852 19.2399 65.0678 19.0127 65.2268C18.7402 65.4085 18.4335 65.5335 18.0928 65.6016C17.752 65.6471 17.434 65.6243 17.1387 65.5335C16.8434 65.4426 16.5822 65.2723 16.3551 65.0224C16.1506 64.7725 16.037 64.4204 16.0143 63.9661C15.9462 62.9212 15.9121 61.8763 15.9121 60.8314C15.9121 60.3089 15.9007 59.8092 15.878 59.3322C15.878 58.8552 15.8894 58.1851 15.9121 57.3219C15.9121 56.8903 15.878 56.4019 15.8099 55.8567C15.7417 55.2889 15.5714 54.8913 15.2988 54.6642C15.0944 54.4825 14.8672 54.3802 14.6173 54.3575C14.3675 54.3121 14.1176 54.3348 13.8677 54.4257C13.6406 54.5165 13.4361 54.6869 13.2544 54.9368C13.0727 55.1639 12.9477 55.4592 12.8796 55.8227C12.8796 56.118 12.8682 56.4246 12.8455 56.7426C12.8455 57.0379 12.8569 57.3219 12.8796 57.5945C12.9023 58.3214 12.9137 59.0142 12.9137 59.6729C12.9137 60.3089 12.9023 60.9904 12.8796 61.7173C12.8569 62.0126 12.8455 62.3306 12.8455 62.6713C12.8682 63.0121 12.8682 63.3528 12.8455 63.6935C12.8228 64.0115 12.7547 64.3068 12.6411 64.5794C12.5502 64.852 12.3799 65.0678 12.13 65.2268C11.8574 65.4085 11.5621 65.5221 11.2441 65.5676C10.9488 65.5903 10.6649 65.5448 10.3923 65.4313C10.1424 65.295 9.91525 65.0905 9.71081 64.8179C9.52909 64.5454 9.42687 64.1819 9.40416 63.7276C9.35872 63.2052 9.32465 62.7281 9.30194 62.2965C9.30194 61.8422 9.30194 61.3652 9.30194 60.8655C9.30194 60.343 9.31329 59.8092 9.33601 59.264C9.35872 58.6962 9.34737 58.151 9.30194 57.6285C9.30194 57.4695 9.29058 57.2878 9.26786 57.0834C9.26786 56.8562 9.25651 56.6291 9.23379 56.4019C9.23379 56.1748 9.21108 55.959 9.16564 55.7545C9.14293 55.5274 9.0975 55.3456 9.02935 55.2094C8.84763 54.8913 8.51826 54.6869 8.04123 54.596C7.58693 54.5052 7.20077 54.5392 6.88275 54.6983C6.56474 54.8573 6.32623 55.0617 6.16722 55.3116C6.00821 55.5614 5.89463 55.834 5.82649 56.1293C5.75834 56.4246 5.72427 56.7426 5.72427 57.0834C5.72427 57.4014 5.72427 57.708 5.72427 58.0033C5.72427 59.4798 5.72427 60.7633 5.72427 61.8536C5.74698 62.9212 5.63341 63.7844 5.38354 64.4431C5.26996 64.7839 5.03145 65.0451 4.668 65.2268C4.32727 65.4085 3.95247 65.4994 3.54359 65.4994C3.15743 65.4994 2.79399 65.4085 2.45326 65.2268C2.11253 65.0451 1.88537 64.7612 1.7718 64.375C1.70365 64.1251 1.63551 63.773 1.56736 63.3187C1.52193 62.8417 1.48786 62.3193 1.46514 61.7514C1.44242 61.1835 1.43107 60.6156 1.43107 60.0477C1.43107 59.4571 1.43107 58.9233 1.43107 58.4463V53.5398C1.40835 53.0173 1.39699 52.4494 1.39699 51.8361C1.39699 51.2228 1.48786 50.6663 1.66958 50.1665C1.82859 49.735 2.07845 49.4624 2.41918 49.3488C2.75992 49.2125 3.112 49.1557 3.47545 49.1784C3.88432 49.1784 4.20234 49.292 4.42949 49.5192C4.67936 49.7236 4.86109 49.9848 4.97466 50.3028C5.08824 50.5981 5.15638 50.9389 5.1791 51.325C5.20182 51.6885 5.22453 52.0406 5.24725 52.3813C5.49711 51.8134 5.79241 51.3477 6.13314 50.9843C6.49659 50.5981 7.00769 50.3483 7.66643 50.2347C9.34737 49.9167 10.6876 50.3483 11.687 51.5295C12.1414 51.0752 12.7206 50.7004 13.4248 50.4051C13.9699 50.2006 14.5265 50.1098 15.0944 50.1325C15.6622 50.1325 16.196 50.2347 16.6958 50.4391C17.2182 50.6436 17.6839 50.9389 18.0928 51.325C18.5244 51.7112 18.8651 52.1769 19.115 52.722C19.4557 53.4489 19.6488 54.2553 19.6942 55.1412C19.7396 56.0271 19.7851 56.8676 19.8305 57.6626ZM37.5993 50.4051C37.8038 50.7231 37.8946 51.0638 37.8719 51.4272C37.8719 51.9497 37.781 52.404 37.5993 52.7902C37.5539 52.9037 37.4857 53.0514 37.3949 53.2331C37.3267 53.4148 37.2472 53.6079 37.1564 53.8124C37.0882 54.0168 37.0087 54.2099 36.9179 54.3916C36.827 54.5733 36.7589 54.7096 36.7134 54.8005L36.6453 54.9708C36.3273 55.675 36.0206 56.3565 35.7253 57.0152C35.43 57.674 35.1006 58.3781 34.7372 59.1277C34.3737 59.8546 34.0217 60.5702 33.6809 61.2743C33.3629 61.9558 33.0449 62.6259 32.7269 63.2847C32.636 63.4664 32.5565 63.6481 32.4884 63.8298C32.4202 63.9888 32.3294 64.1592 32.2158 64.3409L30.5803 67.8504C30.285 68.441 30.001 69.0203 29.7284 69.5882C29.4786 70.1561 29.1946 70.7239 28.8766 71.2918C28.8085 71.4054 28.7403 71.5076 28.6722 71.5985C28.6268 71.7121 28.5813 71.8256 28.5359 71.9392C28.3769 72.2118 28.1384 72.473 27.8204 72.7229C27.5251 72.9955 27.207 73.1431 26.8663 73.1658C26.253 73.2113 25.7192 73.0295 25.2649 72.6207C24.9923 72.4617 24.7765 72.2345 24.6175 71.9392C24.5266 71.7348 24.4812 71.4735 24.4812 71.1555C24.5039 71.0192 24.5153 70.8829 24.5153 70.7467C24.538 70.6331 24.5607 70.5195 24.5834 70.4059C24.6289 70.2923 24.6629 70.1788 24.6856 70.0652C24.7084 69.9516 24.7424 69.8608 24.7879 69.7926C24.856 69.6109 24.9128 69.52 24.9582 69.52L27.4456 64.1365C27.332 63.8866 27.2184 63.6367 27.1048 63.3869C26.9912 63.1143 26.889 62.8758 26.7982 62.6713C26.5029 61.9672 26.1849 61.2289 25.8441 60.4566C25.5261 59.6616 25.1967 58.8779 24.856 58.1056C24.5153 57.3105 24.1632 56.5382 23.7997 55.7886C23.4363 55.039 23.0729 54.3235 22.7094 53.642C22.5731 53.4148 22.4482 53.1763 22.3346 52.9265C22.221 52.6539 22.1302 52.3926 22.062 52.1428C21.9939 51.8702 21.9712 51.5976 21.9939 51.325C22.0166 51.0524 22.1188 50.7799 22.3005 50.5073C22.4823 50.1665 22.7208 49.928 23.0161 49.7917C23.3114 49.6327 23.618 49.5646 23.936 49.5873C24.2768 49.5873 24.5948 49.6554 24.8901 49.7917C25.1854 49.928 25.4239 50.1098 25.6056 50.3369C25.9918 50.7458 26.2984 51.2001 26.5256 51.6998C26.7527 52.1996 26.9685 52.7107 27.173 53.2331C27.6046 54.1417 28.0475 55.0958 28.5018 56.0952C28.9561 57.0947 29.4104 58.0715 29.8647 59.0255L31.6365 55.2775C31.8183 54.9141 31.9773 54.562 32.1136 54.2212C32.2726 53.8805 32.4316 53.5511 32.5906 53.2331C32.7723 52.847 32.9427 52.4494 33.1017 52.0406C33.2834 51.6317 33.4878 51.2569 33.715 50.9161C33.7604 50.8253 33.8059 50.7458 33.8513 50.6776C33.8967 50.6095 33.9421 50.53 33.9876 50.4391C34.192 50.1665 34.3737 49.9507 34.5327 49.7917C34.6463 49.7009 34.7372 49.6327 34.8053 49.5873C34.8962 49.5192 34.9984 49.4737 35.112 49.451C35.271 49.4056 35.4186 49.3829 35.5549 49.3829C35.7139 49.3601 35.8616 49.3601 35.9979 49.3829C36.225 49.451 36.4976 49.5532 36.8156 49.6895C37.1564 49.8258 37.4176 50.0643 37.5993 50.4051Z" fill="#3D408A"/>
<path d="M66.3867 63.5342C67.4141 64.2074 68.2822 65.0046 68.9908 65.9258C69.7348 66.8115 70.3195 67.9099 70.7446 69.2208C71.2052 70.6735 71.4355 72.1439 71.4355 73.6319C71.471 75.0846 71.2052 76.4487 70.6383 77.7242C70.1069 78.9643 69.2388 80.0626 68.0342 81.0192C66.865 81.9404 65.3237 82.5959 63.4105 82.9856C62.383 83.2337 61.1783 83.4285 59.7965 83.5702C58.4148 83.712 57.1747 83.7828 56.0763 83.7828C54.6945 83.8183 53.2596 83.8183 51.7715 83.7828C50.3188 83.7828 48.9016 83.6411 47.5198 83.3577C46.9175 83.1805 46.4746 82.8794 46.1912 82.4542C45.9432 81.9936 45.766 81.4798 45.6597 80.9129C45.518 80.5941 45.4471 80.2752 45.4471 79.9563V49.7694C45.4471 48.7773 45.642 48.0156 46.0317 47.4841C46.4569 46.9172 47.0061 46.5098 47.6793 46.2618C48.3524 45.9783 49.1142 45.8189 49.9645 45.7834C50.8149 45.7126 51.7006 45.6772 52.6218 45.6772C53.3305 45.6772 54.0391 45.6772 54.7477 45.6772C55.4917 45.6417 56.2358 45.6417 56.9798 45.6772C58.149 45.7126 59.3537 45.8189 60.5937 45.996C61.8692 46.1378 63.0739 46.4212 64.2077 46.8464C64.7391 47.0235 65.306 47.2715 65.9083 47.5904C66.5107 47.8739 66.989 48.2282 67.3433 48.6533C68.4771 49.6808 69.3097 50.8855 69.8411 52.2673C70.408 53.6136 70.656 54.9954 70.5852 56.4126C70.5143 57.7944 70.1246 59.1231 69.416 60.3986C68.7428 61.6741 67.733 62.7193 66.3867 63.5342ZM57.0861 77.6179C58.1845 77.547 59.3005 77.423 60.4343 77.2459C61.5681 77.0687 62.3476 76.7321 62.7727 76.2361C63.2333 75.6692 63.5522 75.0137 63.7294 74.2697C63.9419 73.4902 63.9951 72.7108 63.8888 71.9313C63.8179 71.1164 63.5876 70.3546 63.1979 69.646C62.8436 68.902 62.3653 68.3173 61.7629 67.8922C60.948 67.2544 60.0091 66.847 58.9462 66.6698C57.8833 66.4572 56.8381 66.3509 55.8106 66.3509C55.3146 66.3509 54.854 66.3687 54.4288 66.4041C54.0391 66.4041 53.6848 66.4572 53.3659 66.5635C53.0824 66.6344 52.8699 66.7938 52.7281 67.0418C52.5864 67.2899 52.5155 67.6619 52.5155 68.1579C52.5864 69.0791 52.5864 70.0003 52.5155 70.9215C52.4447 71.8427 52.4093 72.7285 52.4093 73.5788C52.4093 74.0748 52.3915 74.624 52.3561 75.2263C52.3561 75.7932 52.551 76.2715 52.9407 76.6613C53.3305 77.051 53.8973 77.3167 54.6414 77.4585C55.3854 77.6002 56.2003 77.6533 57.0861 77.6179ZM58.149 52.1078C57.0507 52.0724 56.1295 52.0547 55.3854 52.0547C54.6768 52.0192 54.1099 52.0724 53.6848 52.2141C53.295 52.3204 53.0116 52.5861 52.8344 53.0113C52.6927 53.401 52.6396 54.0034 52.675 54.8183C52.675 55.4914 52.6573 56.1646 52.6218 56.8378C52.6218 57.4756 52.6218 58.1133 52.6218 58.7511C52.6218 59.4597 52.8521 59.9911 53.3127 60.3454C53.7733 60.6643 54.3402 60.8592 55.0134 60.9301C55.722 61.0009 56.4483 61.0009 57.1924 60.9301C57.9719 60.8592 58.6451 60.7706 59.2119 60.6643C60.4874 60.4517 61.4618 60.0266 62.135 59.3888C62.8436 58.7156 63.251 57.7413 63.3573 56.4658C63.4991 54.8714 63.0739 53.7731 62.0818 53.1707C61.1252 52.533 59.8143 52.1787 58.149 52.1078ZM104.048 48.4407C104.261 50.1414 104.385 52.1255 104.42 54.3931C104.456 56.6252 104.42 58.8928 104.314 61.1958C104.243 63.4633 104.083 65.6246 103.835 67.6796C103.587 69.6991 103.286 71.329 102.932 72.569C102.684 73.3131 102.383 74.0925 102.029 74.9075C101.71 75.6869 101.355 76.3955 100.966 77.0333C100.399 77.9899 99.7078 78.8403 98.8929 79.5843C98.078 80.2929 97.1745 80.9129 96.1825 81.4444C95.2258 81.9404 94.1983 82.3302 93.1 82.6136C92.0371 82.8971 90.9741 83.0565 89.9112 83.0919C88.0334 83.1628 86.2442 82.8971 84.5435 82.2947C82.8782 81.657 81.337 80.6649 79.9198 79.3186C78.8569 78.2911 78.0065 77.1927 77.3688 76.0235C76.731 74.8543 76.235 73.6319 75.8807 72.3564C75.5264 71.0455 75.2961 69.6991 75.1898 68.3173C75.1189 66.9356 75.0835 65.5183 75.0835 64.0657C75.0835 63.3925 75.0658 62.5599 75.0303 61.5678C75.0303 60.5403 75.0303 59.4951 75.0303 58.4322C75.0303 57.3338 75.0303 56.2709 75.0303 55.2434C75.0303 54.2159 75.0481 53.3479 75.0835 52.6393C75.0835 52.1787 75.0835 51.6827 75.0835 51.1512C75.0835 50.5843 75.1012 50.0351 75.1366 49.5037C75.2075 48.9368 75.3138 48.4053 75.4555 47.9093C75.5972 47.3778 75.8098 46.8995 76.0933 46.4743C76.4121 46.0137 76.855 45.6772 77.4219 45.4646C77.9888 45.252 78.5734 45.1457 79.1757 45.1457C79.8135 45.1457 80.4158 45.2697 80.9827 45.5177C81.5496 45.7657 82.0102 46.12 82.3645 46.5806C82.5416 46.8641 82.6657 47.1475 82.7365 47.431C82.8074 47.7144 82.8605 48.0333 82.896 48.3876C82.9668 49.5568 83.0022 50.8855 83.0022 52.3735C83.0377 53.8616 83.0377 55.3143 83.0022 56.7315C83.0022 58.1133 82.9845 59.3888 82.9491 60.558C82.9137 61.7272 82.896 62.5953 82.896 63.1622C82.896 65.288 83.0022 67.219 83.2148 68.9551C83.4274 70.6558 83.9234 72.073 84.7029 73.2068C85.4115 74.2343 86.2442 74.8897 87.2008 75.1732C88.1574 75.4566 89.114 75.5452 90.0707 75.4389C90.9564 75.3326 91.8422 75.0137 92.728 74.4823C93.6492 73.9154 94.3755 73.1005 94.9069 72.0376C95.1195 71.6478 95.2967 71.2049 95.4384 70.7089C95.5801 70.2129 95.6864 69.7523 95.7573 69.3271C95.899 67.9808 96.023 66.4218 96.1293 64.6503C96.2356 62.8433 96.3242 61.0009 96.395 59.1231C96.4659 57.2453 96.5013 55.4029 96.5013 53.5959C96.5013 51.7889 96.4836 50.1591 96.4482 48.7065C96.519 48.0687 96.7139 47.4841 97.0328 46.9527C97.3162 46.4921 97.7237 46.0846 98.2551 45.7303C98.7866 45.376 99.5129 45.1988 100.434 45.1988C101.178 45.2343 101.78 45.4291 102.241 45.7834C102.702 46.1023 103.074 46.4566 103.357 46.8464C103.676 47.307 103.906 47.8384 104.048 48.4407ZM136.243 67.6796C136.42 68.1756 136.544 68.7425 136.615 69.3803C136.722 69.9826 136.775 70.6026 136.775 71.2404C136.775 71.8781 136.722 72.5159 136.615 73.1536C136.544 73.756 136.438 74.2874 136.296 74.748C135.73 76.7321 134.596 78.3974 132.895 79.7437C131.194 81.0547 129.246 82.0113 127.049 82.6136C124.888 83.2159 122.638 83.4285 120.3 83.2514C117.997 83.0742 115.942 82.4896 114.135 81.4976C113.001 80.8598 112.026 80.0803 111.212 79.1591C110.397 78.2379 109.706 77.2104 109.139 76.0767C108.926 75.6869 108.785 75.244 108.714 74.748C108.678 74.2166 108.731 73.7205 108.873 73.2599C109.015 72.7639 109.245 72.3387 109.564 71.9844C109.883 71.5947 110.326 71.329 110.893 71.1872C111.247 71.1164 111.637 71.0809 112.062 71.0809C112.522 71.0809 112.965 71.1518 113.391 71.2935C113.816 71.3998 114.205 71.5947 114.56 71.8781C114.914 72.1261 115.198 72.4805 115.41 72.941C115.8 73.6851 116.349 74.376 117.058 75.0137C117.802 75.6161 118.581 76.1121 119.396 76.5018C120.565 76.8916 121.734 77.051 122.904 76.9801C124.108 76.9093 125.189 76.6436 126.146 76.183C127.138 75.7224 127.935 75.1023 128.537 74.3228C129.139 73.5079 129.441 72.5867 129.441 71.5593C129.441 70.7089 129.317 70.018 129.069 69.4866C128.821 68.9197 128.466 68.4591 128.006 68.1048C127.581 67.715 127.049 67.3962 126.411 67.1481C125.809 66.9001 125.136 66.6875 124.392 66.5104C123.541 66.3332 122.673 66.2092 121.788 66.1384C120.937 66.0675 120.069 65.9789 119.183 65.8726C118.298 65.7663 117.43 65.6246 116.579 65.4475C115.729 65.2703 114.896 65.0046 114.081 64.6503C112.452 63.9771 111.212 62.9496 110.361 61.5678C109.511 60.186 108.997 58.6979 108.82 57.1035C108.678 55.5092 108.873 53.9325 109.405 52.3735C109.936 50.7792 110.786 49.4151 111.956 48.2813C113.089 47.2538 114.436 46.5275 115.995 46.1023C117.589 45.6417 119.343 45.376 121.256 45.3051C122.319 45.2697 123.382 45.3051 124.445 45.4114C125.543 45.5177 126.588 45.6949 127.581 45.9429C128.608 46.1909 129.547 46.5098 130.397 46.8995C131.283 47.2893 132.045 47.7498 132.683 48.2813C133.143 48.6356 133.604 49.1139 134.064 49.7163C134.525 50.2831 134.879 50.9032 135.127 51.5764C135.375 52.2141 135.446 52.8341 135.34 53.4365C135.269 54.0388 134.897 54.5525 134.224 54.9777C133.657 55.332 133.108 55.4914 132.576 55.456C132.08 55.3852 131.602 55.2257 131.141 54.9777C130.681 54.6943 130.238 54.3754 129.813 54.0211C129.387 53.6668 128.998 53.3479 128.643 53.0644C127.687 52.3558 126.5 51.8775 125.083 51.6295C123.665 51.3815 122.337 51.3283 121.097 51.4701C120.317 51.5764 119.591 51.7535 118.918 52.0015C118.245 52.2495 117.66 52.5861 117.164 53.0113C116.703 53.4365 116.331 53.9679 116.048 54.6057C115.8 55.208 115.711 55.8989 115.782 56.6784C115.818 57.2453 115.977 57.7236 116.26 58.1133C116.579 58.5031 116.951 58.8219 117.376 59.0699C117.837 59.318 118.333 59.5128 118.865 59.6546C119.396 59.7963 119.928 59.9026 120.459 59.9734C122.053 60.186 123.648 60.3454 125.242 60.4517C126.836 60.558 128.395 60.9123 129.919 61.5147C131.478 62.117 132.807 62.9319 133.905 63.9594C135.003 64.9869 135.783 66.2269 136.243 67.6796Z" fill="#3D408A"/>
<path d="M104.499 21.0202C103.927 20.4274 103.397 19.7857 102.91 19.095C102.448 18.3864 102.097 17.6182 101.858 16.7906C101.525 15.7223 101.443 14.6298 101.613 13.5132C101.783 12.3967 102.142 11.3576 102.689 10.3959C103.27 9.37256 103.954 8.46808 104.741 7.68246C105.535 6.8532 106.403 6.18269 107.345 5.67091C108.313 5.14108 109.332 4.76623 110.404 4.54636C111.482 4.28286 112.619 4.20894 113.812 4.32462C115.092 4.45534 116.25 4.84565 117.284 5.49556C118.325 6.10182 119.202 6.88192 119.914 7.83584C120.651 8.7717 121.222 9.82496 121.627 10.9956C122.04 12.1226 122.266 13.285 122.307 14.4828C122.307 14.4828 122.312 14.5175 122.323 14.5867C122.304 15.482 122.184 16.3714 121.964 17.2547C121.727 18.1125 121.555 18.9815 121.448 19.8618C121.301 20.8475 121.393 21.6834 121.724 22.3695C122.037 23.0301 122.404 23.7674 122.826 24.5814C123.255 25.3518 123.505 26.1139 123.578 26.8678C123.657 27.578 123.292 28.2003 122.481 28.7346C121.926 29.0883 121.399 29.2111 120.901 29.1028C120.41 28.9509 119.948 28.7027 119.513 28.3581C119.085 27.97 118.713 27.5239 118.395 27.0198C118.06 26.4902 117.782 26.0155 117.562 25.5957C117.083 24.5921 116.769 23.5493 116.618 22.4674C116.449 21.3599 116.406 20.2403 116.489 19.1087C116.55 18.4902 116.639 17.9101 116.755 17.3684C116.853 16.8011 116.916 16.239 116.944 15.6822C116.973 15.1255 116.945 14.5702 116.861 14.0165C116.776 13.4627 116.583 12.8902 116.28 12.2988C116.014 11.7587 115.632 11.2998 115.136 10.9221C114.621 10.5189 114.075 10.2339 113.497 10.0669C112.901 9.87441 112.295 9.80378 111.68 9.85504C111.046 9.88072 110.465 10.0614 109.935 10.397C109.456 10.6966 109.016 11.1037 108.612 11.6184C108.191 12.1075 107.871 12.659 107.653 13.273C107.417 13.8614 107.303 14.4596 107.311 15.0675C107.344 15.6574 107.554 16.1991 107.941 16.6926C108.183 16.9815 108.46 17.2651 108.771 17.5434C109.09 17.7781 109.371 18.0399 109.613 18.3288C109.863 18.574 110.049 18.8644 110.171 19.2C110.319 19.5175 110.342 19.9034 110.241 20.3579C110.088 21.1178 109.781 21.6604 109.321 21.9855C108.842 22.285 108.312 22.4295 107.729 22.4191C107.147 22.4087 106.562 22.2854 105.973 22.0492C105.392 21.7694 104.901 21.4264 104.499 21.0202ZM129.068 32.3631C129.592 33.1049 129.78 33.9686 129.633 34.9543C129.493 35.8963 129.065 36.6202 128.349 37.1259C127.658 37.6136 126.845 37.7657 125.911 37.5822C124.94 37.3476 124.202 36.8722 123.696 36.156C123.137 35.3631 122.936 34.5084 123.093 33.592C123.215 32.6244 123.621 31.8968 124.312 31.4091C125.028 30.9034 125.862 30.755 126.815 30.964C127.775 31.1294 128.526 31.5958 129.068 32.3631Z" fill="#3D408A"/>
</svg>
